<svg xmlns="http://www.w3.org/2000/svg" viewBox="0 0 1200 440" width="1200" height="440" role="img"><title>RoCE 网络中的 PFC 与 ECN 拥塞通知</title><defs><path id="gS" d="M11 -117Q9 -134 18 -150Q28 -165 43 -167Q78 -174 104 -150Q108 -148 125 -130Q168 -103 232 -98Q270 -98 302 -97Q335 -96 372 -101Q410 -106 441 -117Q483 -150 473 -174Q467 -194 432 -219Q397 -244 391 -250Q281 -290 157 -351Q124 -367 109 -379Q94 -391 68 -421Q56 -438 64 -488Q70 -505 106 -522Q107 -522 127 -528Q147 -534 150 -534Q162 -543 178 -552Q193 -560 206 -566Q218 -572 238 -580Q259 -589 270 -593Q280 -597 304 -606Q329 -614 337 -617Q347 -620 379 -634Q411 -647 438 -656Q464 -666 477 -668L535 -674L574 -655Q583 -648 586 -640Q588 -631 588 -617Q587 -603 587 -598Q561 -565 536 -572Q534 -572 523 -578Q512 -585 511 -585Q505 -586 496 -584Q487 -582 476 -578Q464 -573 460 -572Q433 -557 370 -530Q308 -504 296 -498Q218 -469 201 -458V-452Q214 -434 235 -420Q256 -406 294 -390Q332 -374 340 -370Q485 -316 549 -237Q574 -183 568 -136Q552 -98 519 -68Q486 -37 447 -23Q392 -1 282 -3Q166 0 87 -35Q60 -43 49 -54Q11 -82 11 -117Z"/><path id="ge" d="M103 -285Q175 -377 261 -405Q316 -412 319 -412Q381 -410 427 -374Q473 -339 476 -278Q477 -225 434 -181Q390 -137 337 -133Q317 -126 294 -126Q242 -126 179 -164Q160 -183 154 -183Q150 -185 147 -183Q114 -133 115 -107Q126 -42 185 4Q244 49 310 45Q320 49 345 46Q370 42 378 40Q387 38 412 30Q438 23 448 20Q483 6 541 2H548Q555 0 561 5Q567 10 568 20V57Q532 98 479 101Q468 104 440 112Q411 120 396 124Q382 127 358 130Q335 134 316 133Q228 137 147 88Q73 50 33 -44Q18 -103 38 -159Q58 -215 103 -285ZM181 -237Q202 -237 217 -234Q226 -229 234 -226Q243 -224 256 -222Q268 -221 272 -221Q276 -221 294 -221Q311 -221 312 -221Q364 -237 381 -266Q384 -277 382 -286Q379 -294 370 -300Q361 -306 353 -309Q345 -312 332 -316Q318 -321 312 -323Q288 -323 263 -310Q238 -296 223 -283Q208 -270 185 -247Q185 -246 183 -242Q181 -239 181 -237Z"/><path id="gn" d="M276 -272Q210 -216 156 -133Q154 -129 130 -90Q107 -50 99 -32Q88 -14 67 -19L23 -64V-95Q28 -121 34 -196Q40 -271 42 -285Q42 -290 41 -294L37 -320Q36 -324 36 -329V-333Q36 -349 46 -359Q57 -369 73 -368Q105 -368 118 -348Q125 -321 125 -278Q125 -269 124 -256Q124 -242 124 -241Q132 -247 156 -272Q181 -296 187 -304Q194 -313 204 -328Q215 -344 225 -356Q235 -367 249 -378Q254 -385 261 -388Q268 -392 274 -392Q281 -393 289 -393Q297 -393 305 -393Q316 -397 328 -392Q339 -386 352 -370Q365 -353 368 -347Q372 -341 384 -322Q415 -250 415 -165L434 -83Q434 -80 440 -63Q447 -46 447 -45Q449 -18 434 -7Q431 -6 420 -2Q408 3 402 3Q392 3 390 -7Q388 -10 376 -30Q365 -49 358 -57Q339 -123 333 -184Q330 -191 324 -214Q319 -238 314 -247Q293 -271 286 -273Q278 -273 276 -272Z"/><path id="gd" d="M6 -171V-178Q16 -258 82 -320Q148 -381 227 -368Q264 -366 294 -340Q323 -314 322 -279Q322 -269 316 -266Q310 -264 299 -266Q288 -267 284 -266Q233 -284 189 -279Q87 -227 88 -146Q80 -113 102 -94Q124 -75 157 -75Q180 -75 196 -83Q303 -139 373 -298Q373 -320 374 -338L378 -460Q379 -478 379 -500Q388 -597 398 -627Q399 -641 403 -664Q407 -688 412 -714Q416 -739 417 -747Q421 -776 449 -785Q465 -784 484 -774Q503 -765 505 -753Q510 -741 512 -726Q513 -711 512 -699Q511 -687 512 -671Q511 -664 514 -632Q518 -601 518 -595Q518 -558 505 -450Q502 -429 486 -390Q470 -351 467 -330V-266Q468 -265 468 -263L473 -251L474 -248L493 -184Q499 -160 508 -138Q517 -115 531 -82Q545 -50 550 -39Q552 -8 537 4Q533 10 526 10Q521 10 493 -7Q483 -17 474 -30Q464 -44 458 -55Q452 -66 444 -86Q435 -105 432 -114Q429 -122 421 -144Q413 -167 411 -172Q398 -164 368 -126Q339 -87 335 -83Q263 -9 202 11Q141 19 128 19Q79 19 50 -7Q36 -18 25 -33Q9 -59 6 -100Q2 -141 6 -171Z"/><path id="gr" d="M36 -268Q43 -312 66 -344Q89 -376 131 -414Q167 -432 224 -432Q294 -432 339 -408Q424 -355 460 -319Q460 -316 461 -304Q462 -292 460 -284Q459 -276 453 -275Q421 -270 388 -285Q380 -290 362 -300Q344 -311 335 -316Q326 -321 311 -326Q296 -331 282 -332Q274 -332 256 -332Q238 -333 228 -332Q217 -332 202 -329Q187 -326 175 -319L169 -313Q133 -265 124 -239Q126 -209 124 -186Q122 -162 124 -132Q125 -102 131 -79Q138 -67 139 -56Q140 -44 134 -29Q128 -14 126 -8Q123 -3 112 15Q103 27 90 27Q76 27 61 15Q37 0 23 -41Q23 -199 36 -268Z"/><path id="gN" d="M74 -74Q78 -90 78 -102Q78 -114 84 -125Q85 -128 89 -148Q93 -169 93 -171Q110 -212 134 -286Q158 -360 167 -384Q170 -396 176 -422Q183 -449 184 -457Q185 -465 188 -491Q190 -517 185 -528Q192 -572 229 -582Q235 -583 243 -579Q251 -575 264 -565Q276 -555 277 -555Q282 -547 284 -542Q287 -536 289 -526Q291 -515 293 -509Q301 -472 308 -400Q314 -328 321 -294Q323 -288 330 -262Q338 -237 343 -224Q345 -218 349 -206Q353 -195 354 -192Q356 -188 360 -181Q364 -174 369 -170Q374 -165 382 -160L389 -161L428 -228Q441 -253 452 -282Q463 -312 473 -349Q483 -386 489 -410Q495 -434 504 -478Q514 -523 518 -538Q518 -559 522 -590Q527 -622 528 -647Q537 -707 568 -719Q599 -721 617 -690Q635 -659 626 -628Q626 -626 615 -590Q604 -554 603 -550Q603 -545 600 -538Q598 -531 597 -522Q596 -514 594 -501Q592 -488 590 -478Q589 -468 589 -467Q553 -341 544 -296Q532 -254 501 -176Q470 -98 464 -82Q438 -31 407 -12Q388 -5 367 -11Q353 -13 339 -26Q325 -40 318 -52Q310 -64 298 -88Q285 -111 282 -116Q269 -147 252 -205Q234 -263 228 -281Q219 -274 210 -256Q202 -239 198 -226Q193 -212 186 -186Q179 -160 177 -153Q165 -125 162 -112Q159 -98 160 -77Q160 -56 157 -33Q151 42 116 42Q104 46 99 46Q72 46 64 15Q49 -31 74 -74Z"/><path id="gI" d="M31 -61 135 -87Q157 -92 160 -106Q171 -131 180 -224Q189 -317 194 -339Q210 -453 205 -510Q190 -516 176 -516Q168 -516 150 -514Q131 -511 121 -511Q114 -506 99 -506Q82 -506 70 -511Q49 -525 45 -562Q44 -571 62 -590Q80 -608 99 -620Q122 -622 146 -606H222Q240 -612 241 -613Q243 -614 254 -626Q265 -637 273 -638Q301 -640 311 -625H355Q366 -627 377 -630Q388 -632 390 -633Q392 -634 399 -634Q406 -635 411 -634Q416 -634 431 -633H455Q476 -623 491 -600Q506 -576 500 -557Q486 -551 474 -547Q463 -543 454 -540Q444 -537 438 -536Q432 -534 424 -534Q416 -533 413 -533Q410 -533 400 -533Q391 -533 388 -533Q362 -533 342 -530Q339 -530 337 -529L316 -525Q314 -524 311 -524Q310 -524 308 -522Q305 -519 305 -518Q296 -483 280 -365Q263 -247 255 -214Q254 -205 252 -180Q249 -156 248 -144Q248 -133 249 -112Q249 -110 256 -106Q262 -101 268 -100Q377 -114 411 -112Q412 -112 425 -110Q438 -109 444 -108Q451 -106 461 -103Q471 -100 476 -94Q482 -89 483 -81Q486 -72 482 -58Q477 -45 470 -43Q440 -32 325 -11Q320 -11 316 -10L283 -6Q279 -5 274 -5Q240 1 217 20H186L160 13Q143 14 118 20Q92 25 81 26Q45 34 21 -11Z"/><path id="gC" d="M95 -484Q162 -575 228 -604Q267 -628 307 -624Q313 -624 325 -624Q337 -623 342 -623H348Q350 -623 362 -620Q374 -616 376 -617H380Q381 -620 388 -630Q396 -640 399 -642Q420 -648 436 -623Q443 -608 451 -576Q454 -568 462 -554Q507 -497 507 -418Q507 -414 506 -400Q506 -385 506 -383Q494 -351 468 -351Q429 -360 424 -364L422 -366Q420 -367 419 -368L418 -370Q404 -406 392 -459Q387 -481 380 -490Q374 -495 362 -509Q349 -523 338 -530Q327 -537 313 -535Q296 -535 280 -530Q263 -524 252 -518Q241 -511 226 -496Q210 -482 202 -474Q195 -466 179 -446Q163 -427 158 -421Q67 -268 146 -187Q199 -121 310 -92Q320 -88 321 -87Q324 -87 366 -90Q407 -94 433 -99Q450 -103 469 -103Q483 -103 510 -100Q536 -96 542 -90Q550 -80 550 -68Q550 -55 542 -46Q520 -28 511 -27Q435 -2 386 2Q326 2 259 -18Q192 -39 146 -73Q102 -98 68 -141Q35 -184 25 -231Q3 -337 95 -484Z"/><path id="gw" d="M23 -288Q24 -295 24 -310Q25 -324 26 -332Q27 -341 30 -350Q32 -359 36 -363Q57 -381 96 -389Q103 -390 110 -386Q117 -383 122 -379Q126 -375 133 -368Q140 -360 143 -357Q143 -348 146 -327Q149 -306 150 -295Q150 -284 143 -269Q126 -245 118 -180Q116 -145 118 -104Q120 -97 127 -97Q141 -105 166 -138Q191 -171 194 -174L200 -186Q201 -189 204 -204Q208 -219 213 -224Q231 -243 283 -250Q291 -250 298 -245Q305 -240 308 -235Q312 -230 318 -219Q325 -208 327 -205Q339 -163 339 -142L352 -129H371Q398 -152 422 -178Q445 -205 478 -250Q512 -294 523 -307Q528 -316 567 -370L617 -420Q624 -426 632 -427Q641 -428 652 -427Q663 -426 668 -427Q691 -410 674 -363Q585 -247 523 -174Q476 -105 405 -36Q370 -3 320 -3Q275 -19 251 -73L244 -79Q226 -69 192 -32Q157 4 131 15Q128 15 118 16Q109 16 104 16Q98 16 91 14Q84 12 80 9Q53 -8 36 -66Q30 -90 28 -120Q27 -150 29 -174Q31 -197 29 -228V-256Q29 -257 26 -272Q23 -286 23 -288Z"/><path id="gi" d="M14 -557Q20 -572 36 -582Q51 -591 68 -589Q74 -590 79 -589Q84 -588 90 -585Q95 -582 98 -580Q101 -578 106 -571Q112 -564 114 -562Q116 -561 122 -552L128 -544Q132 -534 166 -500Q173 -490 174 -476Q174 -463 166 -455H144Q127 -452 110 -457Q92 -462 64 -477Q35 -492 33 -493Q16 -503 10 -522Q5 -540 14 -557ZM78 -50Q76 -62 72 -102Q68 -143 64 -188Q60 -232 59 -240Q57 -267 59 -297Q74 -323 109 -316Q122 -310 135 -278Q135 -257 138 -234Q142 -211 146 -195Q149 -179 156 -153Q163 -127 166 -113Q166 -105 164 -88Q163 -70 162 -54Q160 -38 160 -37Q159 -34 158 -26Q156 -18 154 -13Q153 -8 150 -2Q146 3 141 6Q114 11 97 -6Q80 -36 78 -50Z"/><path id="gt" d="M168 -188 170 -270Q170 -299 165 -359Q159 -382 154 -386Q88 -381 53 -364Q44 -364 27 -357Q10 -350 -2 -352Q-9 -355 -16 -361Q-23 -367 -30 -376Q-38 -384 -43 -388Q-47 -398 -46 -416Q-45 -434 -39 -443L-6 -472Q46 -473 149 -492L156 -500L158 -657Q181 -682 215 -675Q242 -654 245 -623Q248 -617 249 -573Q250 -529 257 -522Q258 -522 266 -519Q274 -516 276 -516Q296 -518 327 -524Q358 -529 372 -530Q386 -531 423 -529L469 -527Q512 -521 501 -477Q484 -460 475 -458Q452 -456 428 -452Q404 -448 368 -440Q333 -431 321 -429L319 -428Q293 -427 260 -415L255 -408Q255 -396 254 -368Q252 -341 253 -322Q254 -302 259 -282Q259 -107 277 -64Q297 -46 313 -45Q322 -45 336 -48Q340 -49 348 -51Q356 -53 359 -54Q362 -54 368 -56Q374 -58 376 -59Q379 -60 384 -62Q388 -65 390 -68Q393 -71 397 -75Q401 -79 404 -84Q408 -89 412 -96Q416 -102 421 -110Q420 -115 424 -134Q428 -153 430 -158Q441 -189 470 -188Q484 -190 491 -183Q498 -176 504 -158L509 -141Q502 -92 494 -80Q474 -40 464 -25Q453 -10 426 6Q399 23 343 41Q340 42 320 50Q300 57 289 57Q243 55 221 27Q218 21 203 -4Q188 -30 182 -50Q176 -69 179 -91Q178 -109 174 -143Q170 -177 169 -186Q168 -187 168 -188Z"/><path id="gc" d="M16 -195Q23 -242 44 -274Q64 -306 105 -341Q139 -380 187 -400Q235 -420 282 -411Q303 -412 326 -400Q348 -388 358 -379Q367 -370 390 -347Q413 -316 409 -252Q396 -228 383 -227Q380 -227 366 -226Q352 -224 344 -227Q337 -230 333 -240Q313 -293 302 -299Q287 -309 267 -310Q247 -311 231 -309Q207 -303 184 -284Q161 -266 150 -252Q138 -237 117 -208Q117 -205 114 -188Q110 -171 112 -157Q113 -143 124 -138Q156 -99 192 -86Q235 -69 345 -50L466 -24Q473 -18 480 -6Q486 7 485 13Q481 26 466 39Q450 52 434 57Q395 61 333 44Q224 24 187 13Q89 -19 41 -81Q9 -124 16 -195Z"/><path id="gh" d="M315 -238Q287 -226 262 -205Q236 -184 224 -170Q213 -156 186 -119Q160 -82 153 -73Q136 -27 103 2Q89 9 78 9Q56 9 46 -10Q44 -13 39 -19Q34 -25 30 -30L27 -35Q27 -38 26 -48Q26 -59 26 -66Q26 -72 28 -80Q29 -88 33 -92Q37 -125 38 -163Q40 -201 39 -226Q38 -252 36 -298Q34 -344 33 -363Q35 -389 30 -446Q25 -503 27 -528V-585Q26 -597 38 -599Q51 -601 59 -598Q60 -597 68 -589Q76 -581 82 -574Q89 -566 90 -560Q117 -431 116 -389Q116 -379 119 -297Q122 -215 122 -206V-187H128Q136 -194 195 -254Q254 -315 293 -338Q311 -345 333 -345Q366 -345 387 -320Q421 -283 437 -238Q453 -194 463 -130Q492 -41 489 2L486 8Q484 13 482 15Q476 22 465 22Q457 22 438 15Q408 -22 387 -79Q363 -150 362 -161Q346 -229 315 -238Z"/><path id="gq" d="M355 -70H351Q336 -63 308 -46Q279 -29 255 -17Q231 -5 209 0Q149 6 147 6Q107 6 83 -13Q49 -29 32 -64Q14 -99 13 -139Q-3 -216 102 -259Q184 -316 306 -316Q336 -316 468 -304Q488 -295 500 -278Q513 -260 507 -240Q511 -211 487 -184Q447 -130 449 -18Q440 69 544 163Q549 169 550 177Q552 185 551 192Q550 200 551 208Q549 212 546 213Q542 214 536 214Q531 214 529 214Q481 216 453 186Q376 128 361 -6Q361 -13 360 -19L356 -57Q355 -63 355 -70ZM114 -120Q118 -97 139 -87Q160 -77 184 -82Q236 -85 284 -124Q332 -162 367 -215Q366 -215 362 -218Q357 -221 355 -221Q339 -228 329 -228Q266 -224 146 -177Q102 -160 114 -120Z"/><path id="gu" d="M418 -282 423 -281Q427 -322 440 -336Q451 -350 458 -350Q461 -350 465 -350Q472 -351 478 -349Q483 -347 492 -340Q500 -332 503 -330Q519 -304 516 -267Q516 -265 497 -220Q490 -183 495 -144Q500 -106 523 -75Q542 -31 526 -11Q522 -1 511 -1Q505 -1 496 -4Q488 -7 477 -12Q466 -17 462 -18Q426 -42 416 -97Q376 -54 340 -34Q303 -15 241 -1Q208 3 176 -9Q145 -21 130 -33Q115 -45 79 -77Q65 -96 56 -113Q48 -130 44 -150Q41 -170 40 -180Q39 -189 40 -216Q41 -244 41 -254Q47 -260 47 -273V-279Q44 -294 60 -349Q62 -353 72 -362Q81 -372 85 -374Q94 -376 117 -372Q140 -368 142 -368Q150 -366 154 -361Q159 -356 160 -348Q162 -341 162 -335Q162 -329 162 -319Q161 -309 161 -305Q161 -303 158 -298L155 -292Q135 -249 135 -202Q132 -176 148 -148Q164 -121 187 -102Q235 -91 246 -91Q267 -91 288 -102Q304 -108 318 -118Q333 -129 342 -138Q352 -148 364 -166Q377 -184 382 -192Q387 -201 400 -224Q413 -247 417 -253Q417 -258 418 -268Q418 -278 418 -282Z"/><path id="go" d="M29 -133V-241Q22 -252 22 -273Q22 -294 29 -304Q44 -315 64 -327Q84 -339 108 -353Q132 -367 143 -374Q185 -399 248 -399Q322 -399 390 -367Q459 -335 504 -279Q556 -208 529 -146Q465 -36 339 -7Q323 -1 304 2Q284 5 272 6Q260 6 234 6Q208 5 200 5Q149 -6 130 -11Q110 -16 88 -32Q66 -47 56 -68Q45 -89 29 -133ZM124 -133Q131 -119 147 -102Q163 -86 175 -83Q198 -71 241 -71Q281 -71 324 -82Q368 -94 405 -122Q442 -151 447 -190Q448 -202 448 -209Q448 -216 442 -226Q435 -235 430 -240Q425 -245 416 -253Q407 -261 403 -266Q318 -313 274 -313Q252 -313 232 -304Q223 -301 213 -291Q184 -264 175 -260Q172 -257 164 -249Q155 -241 149 -236Q143 -230 138 -222Q132 -215 131 -209Q125 -198 124 -184Q123 -170 124 -158Q126 -147 124 -133Z"/><path id="gv" d="M24 -430Q27 -433 35 -442Q43 -450 46 -452Q50 -454 58 -458Q65 -461 75 -461Q89 -466 105 -450Q121 -435 126 -417Q130 -341 157 -234Q159 -228 168 -204Q177 -180 184 -166Q190 -153 204 -138Q217 -123 233 -120Q252 -116 268 -130Q361 -241 391 -297Q403 -316 424 -364Q444 -413 461 -436Q470 -445 505 -442Q518 -440 528 -426Q537 -413 537 -398Q537 -392 518 -348Q444 -217 379 -136Q374 -130 363 -114Q352 -99 347 -92Q342 -86 332 -74Q321 -61 314 -54Q306 -47 296 -38Q285 -28 274 -21Q272 -19 266 -14Q260 -10 260 -10Q259 -10 254 -7Q249 -4 248 -5Q247 -6 240 -4Q234 -3 230 -5Q213 -5 207 -7Q201 -9 189 -19Q168 -38 151 -61Q134 -84 125 -100Q116 -117 100 -151Q75 -224 62 -284Q55 -302 18 -367Q16 -414 24 -430Z"/><path id="gs" d="M66 -70Q68 -74 75 -85Q82 -96 85 -102Q137 -93 173 -58Q188 -46 205 -39Q222 -32 244 -30Q265 -27 279 -26Q293 -25 320 -26Q346 -26 357 -26Q379 -26 414 -39Q424 -43 426 -53Q428 -63 420 -70Q401 -84 322 -123Q242 -162 237 -165Q135 -196 59 -254Q54 -261 42 -270Q31 -280 24 -290Q17 -299 15 -311Q14 -350 53 -380Q58 -382 92 -392Q126 -402 142 -412Q235 -449 319 -455Q321 -455 330 -454Q340 -453 342 -453Q343 -453 351 -452Q359 -451 361 -450Q363 -449 369 -447Q375 -445 378 -442Q380 -440 384 -436Q388 -433 390 -428Q393 -424 395 -418Q401 -383 376 -361Q371 -361 344 -360Q317 -359 309 -358Q301 -358 279 -356Q257 -353 245 -350Q233 -347 217 -341Q201 -335 187 -327Q173 -322 168 -311Q164 -300 180 -292Q226 -260 316 -219Q406 -178 439 -159Q472 -138 496 -108Q521 -79 528 -42Q534 -5 496 24Q472 43 434 53Q395 63 372 65Q349 67 301 68Q251 70 194 53Q137 36 97 5Q57 -10 66 -70Z"/><path id="gl" d="M76 -177Q77 -237 83 -338Q89 -440 90 -480Q89 -529 94 -663Q99 -797 96 -859Q104 -885 126 -885Q154 -885 172 -853Q172 -840 173 -829L177 -757Q178 -746 178 -733Q176 -639 166 -458Q155 -277 153 -202Q154 -188 156 -159Q158 -130 160 -116Q161 -103 164 -82Q168 -62 174 -46Q181 -29 191 -13Q192 1 184 12Q171 20 151 20Q128 20 115 12Q98 -6 89 -33Q80 -60 78 -75Q76 -90 76 -130Q76 -171 76 -177Z"/><path id="gcolon" d="M80 -341Q78 -401 112 -432Q123 -440 138 -440Q166 -440 175 -415Q174 -403 168 -376Q163 -350 162 -338Q161 -336 158 -326Q156 -317 154 -314Q152 -310 148 -305Q143 -300 137 -300Q132 -299 121 -299Q110 -299 106 -300Q94 -301 84 -314Q75 -328 80 -341ZM80 -136Q89 -153 107 -167Q125 -181 143 -180H156Q187 -169 194 -117Q195 -109 186 -95Q176 -81 175 -79Q170 -73 166 -52Q162 -31 162 -29Q162 -15 150 -4Q137 7 124 9Q115 6 102 -6Q89 -19 87 -29Q65 -91 80 -136Z"/><path id="gE" d="M23 -57Q23 -63 26 -92Q29 -122 29 -127L31 -147L40 -215Q40 -219 40 -224Q41 -228 42 -231Q42 -234 42 -235V-254Q42 -260 45 -284Q48 -308 48 -310Q55 -331 55 -336V-431Q51 -435 44 -452Q36 -470 36 -475Q31 -508 36 -545Q39 -552 48 -557Q56 -562 70 -566Q84 -569 86 -570Q123 -562 137 -564Q158 -564 182 -569Q205 -574 218 -578Q232 -583 262 -594Q292 -604 302 -608Q315 -611 344 -618Q374 -626 394 -630Q415 -633 441 -633Q452 -634 488 -628L523 -621L533 -614Q543 -606 548 -602Q553 -597 560 -590Q566 -582 567 -576V-513Q563 -505 548 -501Q534 -497 523 -500Q519 -502 502 -521Q484 -540 472 -538Q360 -543 289 -519Q278 -514 244 -502Q210 -491 188 -480Q166 -470 150 -456L143 -450Q143 -443 140 -405Q137 -367 137 -361V-354Q136 -351 140 -341Q143 -331 143 -329Q166 -336 207 -336H251Q268 -340 316 -354Q363 -369 398 -377Q432 -385 460 -386Q470 -386 492 -386Q514 -387 528 -388Q543 -388 562 -386Q580 -384 593 -380Q638 -350 631 -326Q635 -303 605 -292Q599 -289 579 -296Q559 -304 555 -304Q493 -312 434 -300Q375 -288 295 -260Q284 -256 268 -250Q251 -245 243 -242Q235 -239 223 -234Q211 -229 200 -222L196 -220L185 -211L181 -209Q172 -207 154 -212Q135 -216 131 -216Q126 -214 124 -207Q121 -200 120 -190Q119 -181 118 -178Q117 -168 117 -114H128Q145 -114 157 -115L235 -119Q247 -120 264 -120Q282 -120 283 -121Q306 -126 365 -130Q424 -133 429 -133Q508 -137 593 -121Q607 -116 614 -104Q622 -91 618 -76Q610 -65 599 -57Q557 -56 486 -48Q414 -40 384 -38Q377 -37 346 -32Q316 -27 289 -22Q262 -17 251 -13Q242 -12 222 -5Q203 2 197 0L134 13Q116 8 100 -8Q94 -2 80 5Q53 10 36 -13Q27 -26 23 -45Z"/><path id="gm" d="M113 -289 119 -257Q116 -244 132 -194Q172 -236 188 -270Q210 -295 207 -321Q251 -346 283 -340Q301 -335 321 -295V-200L328 -194Q347 -214 378 -253Q408 -292 416 -302Q446 -343 473 -359Q515 -354 536 -327Q565 -278 574 -188Q573 -170 576 -150Q579 -130 585 -106Q591 -82 593 -68Q603 -40 600 -17Q599 -4 587 0Q575 4 562 1Q540 -4 524 -36Q517 -51 512 -66Q506 -80 502 -102Q497 -123 496 -130Q494 -137 490 -168Q486 -198 486 -200Q479 -220 470 -220Q466 -218 455 -208Q444 -198 434 -188Q423 -177 411 -164Q399 -152 397 -150L387 -136L350 -88Q348 -85 346 -82Q343 -79 342 -77Q340 -75 340 -74Q336 -70 326 -56Q315 -41 308 -34Q300 -27 290 -23Q273 -20 258 -26Q243 -33 239 -49Q233 -57 233 -68V-174H231Q227 -176 226 -175Q157 -78 119 -11Q110 1 106 1Q63 6 56 -11Q53 -16 48 -32Q43 -47 43 -49V-292Q47 -319 69 -319Q81 -319 94 -310Q107 -301 113 -289Z"/><path id="ga" d="M408 -144Q400 -138 389 -119Q336 -61 286 -26Q235 8 176 7Q145 11 112 -2Q79 -14 60 -37Q51 -51 48 -56Q44 -62 37 -74Q30 -87 28 -95Q25 -103 22 -114Q19 -125 19 -136Q19 -146 22 -157Q23 -191 44 -226Q66 -261 88 -282Q110 -303 145 -332Q152 -337 155 -340Q197 -374 269 -374Q284 -374 364 -366Q366 -364 378 -359Q389 -354 394 -348Q399 -343 395 -334L408 -321Q438 -308 446 -296Q496 -194 534 -132Q538 -127 560 -110Q581 -92 585 -87Q593 -81 604 -70Q616 -60 624 -55Q632 -50 642 -49Q644 -48 655 -37Q656 -34 654 -30Q653 -25 651 -19Q649 -13 648 -11Q638 4 604 13Q592 13 588 14Q583 16 574 12Q564 9 560 8Q557 6 547 0Q537 -6 532 -9L528 -11Q503 -32 460 -84Q416 -135 408 -144ZM117 -113Q135 -86 171 -86Q188 -86 218 -94Q267 -112 307 -157Q346 -211 351 -252Q351 -255 355 -276Q359 -296 358 -304Q338 -299 300 -296Q263 -294 243 -290Q217 -286 190 -266Q163 -245 149 -227Q135 -209 111 -176Q94 -155 117 -113Z"/><path id="gk" d="M159 -143Q147 -176 140 -180Q140 -181 138 -181H130Q130 -179 125 -130Q120 -80 109 -60Q88 -12 64 2Q27 8 14 -16Q-13 -59 7 -111Q26 -125 32 -138Q38 -152 39 -180Q40 -191 33 -231V-516Q28 -535 26 -556Q25 -578 26 -596Q27 -614 26 -636Q35 -651 55 -650Q83 -657 102 -604Q102 -602 104 -585Q107 -568 110 -546Q114 -524 115 -516Q121 -488 121 -453V-332Q126 -323 134 -326Q177 -343 209 -356Q241 -368 252 -373Q264 -378 277 -382Q290 -387 307 -393Q312 -395 330 -404Q348 -412 356 -416Q363 -419 376 -422Q390 -426 402 -426Q419 -426 436 -419Q443 -411 452 -393Q460 -375 459 -368Q454 -361 446 -356Q438 -352 432 -350Q425 -349 413 -346Q401 -344 395 -343Q357 -329 350 -327Q351 -326 348 -324Q346 -322 338 -316Q329 -311 315 -303Q301 -295 276 -281Q250 -267 216 -250V-244Q260 -128 330 -98Q340 -96 362 -105Q392 -107 400 -92Q421 -70 406 -3Q376 24 343 21Q236 -26 159 -143Z"/><path id="gparenleft" d="M10 -460Q63 -646 130 -719Q178 -765 196 -773Q213 -781 270 -789Q272 -787 282 -781Q292 -775 296 -770Q299 -764 295 -757Q295 -756 294 -754Q293 -751 292 -750Q292 -749 291 -748Q290 -746 289 -746Q288 -745 286 -744Q284 -742 282 -741Q279 -740 276 -738Q252 -733 233 -714Q214 -695 196 -668Q178 -641 168 -631Q142 -591 124 -542Q105 -492 105 -472V-415Q105 -343 194 -225L213 -206Q269 -150 294 -129Q320 -108 352 -92Q390 -55 398 -38Q405 -21 403 21Q403 32 392 40Q381 47 372 47Q351 44 324 20Q296 -5 280 -11Q219 -59 125 -164Q31 -268 29 -314Q10 -363 10 -460Z"/><path id="gP" d="M41 -213Q46 -256 60 -328Q74 -399 79 -428Q94 -483 91 -567Q72 -576 60 -586Q36 -612 40 -637Q36 -662 54 -681Q72 -700 98 -700Q111 -700 123 -694Q129 -688 155 -675Q161 -669 167 -669Q193 -656 199 -656Q309 -636 408 -599Q552 -555 623 -460Q625 -454 631 -444Q637 -434 640 -428Q642 -422 642 -414Q641 -405 635 -397Q614 -358 566 -333Q519 -313 418 -300Q317 -288 294 -283Q255 -267 218 -270Q167 -265 142 -251Q138 -247 136 -238Q131 -225 129 -211Q127 -197 128 -185Q129 -173 128 -156Q125 -107 142 -61Q143 -54 141 -46Q139 -38 136 -32Q134 -26 129 -17Q124 -8 123 -5Q90 28 66 20Q28 -10 28 -55Q30 -122 41 -213ZM159 -373H169Q196 -373 268 -365Q286 -368 344 -377Q402 -386 433 -390Q438 -391 454 -394Q470 -397 476 -399Q483 -401 495 -404Q507 -408 516 -412Q525 -416 534 -422Q535 -423 535 -428Q535 -434 534 -435Q529 -442 518 -451Q507 -460 497 -466Q487 -473 474 -481Q460 -489 458 -491Q423 -496 350 -520Q276 -544 249 -548Q245 -548 234 -549Q224 -550 216 -549Q209 -548 205 -542Q202 -538 194 -522Q187 -505 186 -504Q185 -491 172 -442Q158 -392 159 -373Z"/><path id="gparenright" d="M49 -8Q49 -10 56 -31Q106 -81 151 -81Q205 -103 226 -161Q248 -219 240 -275Q236 -319 218 -377Q200 -435 176 -479Q165 -506 124 -587Q82 -668 69 -681L67 -682Q65 -684 64 -685L48 -696Q47 -697 45 -698L43 -700Q29 -713 23 -724Q17 -735 17 -746Q17 -756 18 -770Q18 -777 40 -786Q61 -796 65 -796Q91 -785 114 -764Q137 -744 154 -724Q170 -703 188 -669Q206 -635 216 -612Q227 -589 244 -548Q262 -506 271 -486Q306 -399 320 -330Q335 -262 321 -189Q316 -150 283 -85Q250 -20 201 0Q187 6 170 14Q153 22 146 25Q139 28 130 32Q121 35 116 36Q111 37 104 38Q98 39 89 39Q82 39 74 36Q66 34 58 24Q49 14 49 -1Z"/><path id="gR" d="M39 -460Q28 -476 26 -498Q24 -521 26 -542Q37 -557 77 -580L83 -586Q62 -636 77 -668Q78 -689 104 -702Q129 -715 152 -713Q172 -693 184 -687Q239 -680 260 -668Q265 -668 271 -667L306 -663Q312 -662 317 -662Q447 -626 538 -580Q544 -574 580 -547Q616 -520 631 -499Q646 -478 646 -450Q647 -434 642 -420Q636 -405 630 -395Q624 -385 608 -372Q592 -359 584 -354Q577 -348 556 -336Q536 -323 532 -320Q515 -308 492 -302Q469 -297 436 -294Q402 -291 393 -289V-283Q415 -258 424 -251Q444 -236 484 -200Q525 -164 545 -150L550 -145L559 -136L560 -135L562 -132Q563 -132 563 -131L582 -114Q605 -91 614 -74Q614 -69 615 -52Q616 -36 614 -23Q613 -10 608 -4Q600 2 592 2Q584 2 570 -4Q534 -26 488 -87Q457 -110 404 -153Q352 -196 330 -213Q274 -249 197 -320Q181 -347 183 -367Q180 -385 186 -396Q193 -407 209 -422Q219 -430 254 -428Q300 -393 336 -384Q357 -384 382 -384Q408 -385 431 -386Q454 -386 478 -394Q502 -401 519 -415Q546 -433 536 -460Q527 -487 500 -498Q449 -530 323 -573Q277 -586 233 -586Q182 -586 115 -567Q115 -554 130 -536Q145 -517 146 -504Q135 -390 140 -213Q142 -209 145 -170Q148 -130 152 -124Q155 -90 152 -55Q150 -34 132 -14Q115 6 97 2Q63 5 51 -23Q40 -108 32 -200Q41 -397 39 -460Z"/><path id="gp" d="M50 -267Q66 -316 96 -345Q127 -374 177 -394Q198 -400 211 -400Q218 -400 244 -396Q362 -365 411 -292Q475 -230 462 -103Q447 -56 392 -24Q336 7 285 4Q239 15 198 -12Q156 -38 114 -84H110Q110 -75 108 -8Q107 60 107 93Q99 200 158 301Q168 320 158 346Q138 369 126 371Q118 372 114 372Q110 373 103 368Q96 362 93 358Q90 355 84 348Q78 341 76 339Q36 267 25 99Q25 91 24 40Q24 -12 24 -25Q24 -38 25 -80Q26 -121 29 -144Q32 -166 37 -200Q42 -235 50 -267ZM190 -141Q194 -135 214 -114Q234 -94 240 -90Q261 -78 289 -78Q349 -78 367 -122Q380 -164 366 -198Q353 -231 316 -267Q303 -279 296 -284Q289 -289 276 -294Q264 -298 253 -292Q211 -272 183 -198Q183 -193 182 -180Q182 -167 184 -158Q185 -149 190 -141Z"/><path id="gg" d="M77 221Q100 203 123 203Q141 203 153 215Q158 220 179 246Q200 271 216 283Q232 295 251 298Q254 298 255 297Q276 287 285 262Q294 237 298 199Q301 161 305 146Q309 120 316 61Q324 2 329 -24H318Q266 -12 216 -12Q168 -12 115 -24Q74 -48 44 -84Q15 -121 14 -164Q18 -208 60 -252Q102 -295 147 -315Q184 -346 239 -346Q310 -346 343 -297Q343 -291 344 -278Q344 -266 344 -260Q343 -253 337 -247Q331 -241 318 -240Q306 -247 253 -253Q190 -257 128 -183Q123 -178 121 -172Q119 -166 121 -160Q123 -154 126 -149Q128 -144 134 -138Q139 -133 142 -130Q146 -126 152 -120Q158 -115 160 -113Q190 -101 226 -101Q258 -101 292 -112Q325 -122 352 -146Q379 -170 381 -202Q390 -246 432 -259H435Q437 -258 444 -256Q452 -254 454 -254Q456 -253 462 -251Q468 -249 470 -248Q473 -247 478 -244Q482 -242 484 -240Q485 -237 488 -234Q490 -230 490 -226Q490 -223 490 -218Q490 -213 489 -208Q491 -178 462 -126Q434 -73 429 -51Q385 91 368 228Q361 314 337 354Q307 399 288 412Q273 421 255 424Q205 404 134 348Q112 337 100 330Q89 323 76 309Q63 295 58 278Q56 236 77 221Z"/><path id="gf" d="M79 -266Q71 -277 60 -285Q-30 -307 -22 -355Q-25 -375 -16 -391Q-7 -407 11 -406Q21 -407 39 -402Q57 -396 69 -400Q69 -406 68 -454Q67 -502 67 -525Q66 -548 72 -594Q78 -640 79 -652Q77 -672 83 -690Q89 -707 105 -731Q121 -755 123 -759Q145 -786 186 -786Q205 -786 237 -778Q276 -762 314 -730Q353 -697 398 -650Q442 -602 465 -582Q493 -545 496 -538Q501 -530 502 -521Q504 -512 504 -499Q503 -486 503 -481Q500 -477 494 -464Q489 -450 482 -444Q476 -437 465 -442Q442 -436 427 -468Q421 -489 421 -513Q416 -518 386 -550Q357 -583 351 -589Q344 -594 300 -633Q256 -672 237 -677Q206 -686 184 -666Q161 -647 155 -614Q140 -480 155 -374L168 -367Q213 -357 288 -347Q364 -337 402 -329Q464 -309 490 -285Q494 -270 484 -256Q475 -242 458 -241Q442 -237 421 -237Q394 -237 340 -248Q286 -259 275 -260Q240 -267 217 -267Q192 -267 168 -260V-252L167 -230V-222Q163 -181 178 -117Q192 -53 193 -25Q193 -18 186 -12Q179 -5 168 2Q158 9 155 11Q145 9 137 4Q129 0 124 -4Q120 -8 116 -18Q111 -27 110 -32Q108 -37 104 -50Q100 -64 98 -70Q79 -138 79 -266Z"/><path id="gperiod" d="M69 -25Q71 -64 76 -76Q93 -94 133 -120Q188 -124 203 -101Q206 -94 211 -84Q216 -74 218 -66Q221 -58 222 -46Q228 -14 190 18Q161 38 140 38Q115 39 89 24Q66 10 69 -25Z"/><path id="gD" d="M38 -54Q45 -59 60 -62Q75 -64 97 -66Q119 -67 121 -67L149 -68Q171 -67 179 -65L201 -68L229 -72Q257 -76 263 -76L262 -82Q245 -82 237 -88Q221 -99 210 -120Q199 -142 196 -154Q192 -166 186 -202Q181 -237 181 -239V-249Q179 -289 184 -386Q188 -484 183 -524Q182 -534 196 -544Q211 -555 212 -557L211 -558L208 -562Q131 -586 90 -606Q50 -626 36 -644Q22 -661 18 -687Q32 -717 59 -717Q70 -717 81 -713L97 -704Q118 -700 121 -699Q258 -660 394 -592Q529 -523 611 -437Q682 -354 703 -315Q739 -250 727 -192Q721 -176 714 -163Q707 -150 696 -138Q686 -126 678 -118Q671 -109 656 -100Q641 -90 634 -85Q627 -80 608 -72Q588 -63 582 -60Q575 -57 552 -48Q528 -38 523 -36Q473 -20 422 -11Q372 -2 302 6Q231 14 196 19L140 27L87 34H74Q42 36 25 -5Q13 -31 38 -54ZM299 -102 287 -89 325 -90Q485 -101 588 -164Q592 -167 609 -184Q626 -202 631 -209Q637 -215 637 -222L636 -244Q630 -278 605 -316Q580 -353 561 -373Q542 -393 503 -429Q368 -521 257 -550H250Q255 -545 259 -538Q271 -509 272 -476Q273 -443 269 -412Q271 -321 276 -254Q296 -180 303 -165Q308 -138 305 -115Q305 -106 299 -102Z"/><path id="gQ" d="M486 -53H482Q463 -54 431 -36Q399 -17 385 -15Q299 0 258 0Q221 0 194 -8Q182 -9 160 -21Q137 -33 112 -49Q88 -65 83 -67Q52 -97 28 -150Q5 -202 8 -248Q7 -287 24 -338Q41 -390 64 -415Q113 -472 187 -528Q194 -538 206 -573Q229 -626 280 -648Q318 -658 340 -658Q365 -658 385 -648Q568 -563 619 -430Q660 -344 637 -271Q629 -243 603 -190Q577 -137 570 -120Q570 -109 576 -98Q581 -86 592 -68Q604 -51 607 -45Q673 39 737 96Q737 99 738 109Q739 119 738 126Q736 132 730 134Q719 141 705 141Q691 141 680 134Q629 119 578 51Q565 33 535 1Q505 -31 490 -52Q489 -53 486 -53ZM138 -158Q222 -102 277 -102Q295 -102 311 -106Q317 -107 332 -108Q347 -109 355 -110Q363 -112 374 -116Q384 -121 391 -128Q393 -130 397 -131Q401 -132 404 -133Q408 -134 410 -136Q411 -139 410 -143Q408 -150 395 -162Q382 -173 379 -181Q368 -197 366 -221Q365 -245 367 -264Q372 -287 404 -310Q430 -313 453 -294Q457 -288 476 -260Q496 -231 509 -219Q514 -223 519 -230Q524 -238 530 -249Q536 -260 539 -264Q568 -320 527 -415Q467 -510 404 -535Q359 -545 345 -545Q315 -545 298 -528Q297 -521 298 -508Q300 -494 298 -484Q296 -475 287 -468Q276 -459 244 -446Q211 -433 200 -423L114 -317Q108 -309 101 -271Q100 -202 138 -158Z"/><path id="gF" d="M53 -52V-501L21 -545Q16 -588 65 -611Q109 -627 192 -644Q275 -661 312 -672Q368 -695 451 -703Q454 -702 469 -704Q484 -705 506 -707Q528 -709 543 -709Q568 -709 578 -703Q601 -703 621 -681Q641 -659 635 -635Q639 -623 632 -612Q625 -600 612 -595Q600 -592 588 -601L577 -609Q571 -614 565 -615Q430 -629 223 -558Q216 -554 196 -546Q175 -539 173 -539Q164 -536 154 -526L141 -513V-450Q141 -373 148 -336Q157 -336 164 -335L214 -331Q221 -330 230 -330Q263 -333 318 -348Q373 -363 408 -367Q477 -375 488 -375Q513 -375 533 -368Q551 -358 553 -341Q555 -324 540 -311Q525 -303 476 -296Q428 -288 420 -286Q390 -275 322 -258Q255 -241 236 -235Q233 -235 214 -226Q194 -218 192 -216H185L154 -222L148 -216Q141 -121 154 -77V-70Q156 -10 129 4Q118 13 93 17Q66 -2 61 -15Q59 -20 59 -26Q53 -40 53 -52Z"/><path id="gy" d="M120 355V343Q128 324 166 225Q203 126 215 96Q241 30 246 -9L232 -10Q218 -11 215 -10Q187 -3 171 -3Q141 -3 114 -23Q59 -45 25 -137Q18 -166 18 -198Q18 -231 22 -256Q25 -281 30 -318Q36 -354 38 -378Q47 -411 87 -411Q104 -411 120 -403Q145 -386 140 -362Q139 -355 120 -327Q104 -278 108 -181Q109 -152 136 -132Q162 -111 193 -104Q205 -105 216 -109Q226 -113 237 -122Q248 -130 254 -136Q260 -141 274 -156Q287 -170 291 -175Q309 -196 324 -228Q338 -259 344 -276Q350 -294 361 -333Q362 -338 364 -348Q367 -359 369 -366Q371 -372 376 -379Q380 -386 386 -390Q410 -403 434 -403Q462 -403 481 -384Q502 -354 462 -295Q443 -257 399 -181Q395 -176 388 -160Q380 -145 380 -143Q376 -132 357 -76Q338 -19 336 -10Q324 23 292 110Q261 197 241 248Q232 266 228 286Q225 305 222 336Q219 366 215 388Q213 415 196 426Q181 432 165 432Q149 432 139 426Q120 388 120 355Z"/><path id="gcomma" d="M45 114Q47 104 50 82Q53 59 55 46Q57 32 62 14Q66 -4 71 -17Q72 -23 74 -32Q76 -41 77 -48Q78 -54 77 -59Q78 -71 77 -81Q76 -91 78 -103Q79 -115 83 -124Q101 -156 141 -156Q154 -156 167 -151Q175 -147 177 -140Q179 -133 178 -122Q177 -111 178 -107Q175 -82 164 -26Q154 31 152 64Q132 180 121 215Q120 217 117 224Q114 230 112 234Q110 238 106 242Q103 247 98 250Q94 252 89 253Q88 254 80 254Q72 254 71 253Q39 230 39 196Q39 188 38 170Q38 152 40 140Q41 127 45 114Z"/><path id="gb" d="M24 -311Q36 -369 37 -380Q39 -408 50 -528Q61 -647 62 -709Q64 -715 68 -720Q71 -726 78 -732Q85 -739 87 -741Q97 -749 107 -749Q135 -749 151 -716Q150 -678 142 -610Q134 -542 132 -513Q115 -374 124 -307L127 -308Q130 -308 133 -308L165 -314Q170 -315 174 -315Q256 -322 273 -322Q345 -322 403 -295Q437 -279 460 -238Q484 -198 481 -163Q485 -138 473 -114Q461 -89 448 -76Q436 -63 410 -39Q333 14 236 12Q181 17 109 -25Q34 -72 24 -165Q22 -238 24 -311ZM131 -173Q132 -163 130 -158Q128 -154 134 -144Q140 -135 142 -132Q143 -128 151 -120Q159 -111 162 -108Q164 -105 172 -98Q181 -90 182 -89Q230 -78 283 -83Q366 -101 378 -153Q386 -179 364 -206Q342 -232 315 -241Q297 -246 278 -246Q211 -246 151 -210Q141 -202 138 -199Q134 -196 132 -189Q129 -182 131 -173Z"/></defs><rect width="100%" height="100%" fill="#ffffff"/><path d="M59 152 L282 148 L281 240 L61 238" stroke="none" stroke-width="0" fill="#ffffff" stroke-linecap="round" stroke-linejoin="round"/><path d="M58 149 C105 150, 147 152, 281 149 M60 150 C125 151, 191 151, 281 151 M278 151 C280 182, 281 212, 280 242 M279 149 C279 175, 280 199, 280 240 M278 241 C224 243, 166 240, 59 241 M279 241 C194 240, 110 240, 60 241 M60 238 C59 220, 58 197, 59 149 M60 241 C60 214, 59 189, 59 151" stroke="#1e1e1e" stroke-width="1.6" fill="none" stroke-linecap="round" stroke-linejoin="round"/><g fill="#1e1e1e" transform="translate(0 202.7) scale(0.02200)"><use href="#gS" x="4977"/><use href="#ge" x="5585"/><use href="#gn" x="6132"/><use href="#gd" x="6599"/><use href="#ge" x="7168"/><use href="#gr" x="7715"/><use href="#gN" x="8645"/><use href="#gI" x="9289"/><use href="#gC" x="9834"/></g><path d="M489 129 L711 132 L709 260 L490 262" stroke="none" stroke-width="0" fill="#ffffff" stroke-linecap="round" stroke-linejoin="round"/><path d="M491 131 C532 127, 578 130, 712 131 M490 129 C561 130, 630 130, 709 130 M708 131 C709 177, 711 223, 710 258 M711 130 C710 173, 710 218, 709 259 M711 259 C650 261, 589 261, 489 259 M709 260 C630 261, 550 261, 490 260 M491 260 C489 215, 491 173, 492 130 M489 261 C490 228, 490 196, 491 131" stroke="#1e1e1e" stroke-width="1.6" fill="none" stroke-linecap="round" stroke-linejoin="round"/><g fill="#1e1e1e" transform="translate(0 202.0) scale(0.02000)"></g><g fill="#1e1e1e" transform="translate(0 162.7) scale(0.02200)"><use href="#gS" x="25774"/><use href="#gw" x="26382"/><use href="#gi" x="26991"/><use href="#gt" x="27210"/><use href="#gc" x="27775"/><use href="#gh" x="28277"/></g><path d="M520 186 L542 187 L543 235 L519 237" stroke="none" stroke-width="0" fill="#a5d8ff" stroke-linecap="round" stroke-linejoin="round"/><path d="M520 185 C524 186, 530 187, 541 184 M521 186 C528 186, 536 185, 541 185 M544 186 C540 204, 543 224, 541 235 M542 185 C542 195, 543 206, 543 236 M542 236 C535 237, 529 237, 519 235 M541 236 C534 236, 527 236, 520 236 M518 237 C521 223, 521 215, 520 186 M521 236 C521 225, 519 214, 520 186" stroke="#1e1e1e" stroke-width="1.6" fill="none" stroke-linecap="round" stroke-linejoin="round"/><path d="M547 187 L568 187 L568 236 L549 236" stroke="none" stroke-width="0" fill="#a5d8ff" stroke-linecap="round" stroke-linejoin="round"/><path d="M545 184 C553 186, 554 183, 569 187 M548 185 C555 186, 563 186, 569 185 M570 186 C570 204, 569 222, 567 236 M568 185 C570 198, 570 212, 569 235 M568 233 C560 234, 556 234, 546 237 M569 234 C562 235, 555 234, 547 235 M547 234 C548 219, 545 204, 545 187 M547 236 C546 217, 547 197, 547 186" stroke="#1e1e1e" stroke-width="1.6" fill="none" stroke-linecap="round" stroke-linejoin="round"/><path d="M574 184 L594 186 L598 236 L575 236" stroke="none" stroke-width="0" fill="#a5d8ff" stroke-linecap="round" stroke-linejoin="round"/><path d="M576 183 C578 184, 583 183, 598 185 M573 184 C582 185, 592 185, 596 185 M597 187 C596 194, 596 204, 598 233 M597 185 C596 202, 595 220, 596 234 M594 235 C590 236, 582 235, 572 234 M596 235 C591 234, 583 236, 574 236 M575 236 C574 215, 574 194, 575 183 M573 236 C574 219, 575 201, 573 185" stroke="#1e1e1e" stroke-width="1.6" fill="none" stroke-linecap="round" stroke-linejoin="round"/><path d="M602 186 L624 186 L623 236 L600 235" stroke="none" stroke-width="0" fill="#a5d8ff" stroke-linecap="round" stroke-linejoin="round"/><path d="M601 186 C606 184, 612 184, 622 183 M600 185 C606 185, 610 184, 624 184 M623 187 C623 198, 623 206, 624 234 M623 185 C623 195, 623 206, 622 236 M625 237 C616 234, 609 237, 599 236 M623 234 C617 235, 611 234, 601 235 M599 234 C600 221, 603 208, 601 184 M601 236 C600 219, 600 205, 602 185" stroke="#1e1e1e" stroke-width="1.6" fill="none" stroke-linecap="round" stroke-linejoin="round"/><path d="M629 183 L650 186 L648 236 L626 235" stroke="none" stroke-width="0" fill="#a5d8ff" stroke-linecap="round" stroke-linejoin="round"/><path d="M627 185 C631 187, 636 184, 650 186 M628 185 C633 185, 637 186, 649 184 M650 183 C649 198, 650 208, 651 235 M649 186 C651 199, 650 214, 651 235 M651 235 C642 236, 636 234, 626 233 M650 235 C645 235, 638 236, 628 234 M627 236 C626 217, 627 197, 626 185 M627 236 C628 222, 628 209, 628 185" stroke="#1e1e1e" stroke-width="1.6" fill="none" stroke-linecap="round" stroke-linejoin="round"/><path d="M657 185 L676 186 L677 237 L656 234" stroke="none" stroke-width="0" fill="#ffffff" stroke-linecap="round" stroke-linejoin="round"/><path d="M653 184 C660 186, 664 184, 678 184 M655 186 C660 185, 666 185, 677 186 M676 183 C679 198, 676 210, 677 237 M678 186 C677 202, 677 219, 677 234 M677 237 C667 233, 662 235, 657 235 M677 236 C672 236, 666 235, 655 235 M656 233 C657 224, 656 211, 656 186 M656 236 C655 224, 656 212, 655 185" stroke="#1e1e1e" stroke-width="1.6" fill="none" stroke-linecap="round" stroke-linejoin="round"/><g fill="#1e1e1e" transform="translate(0 46.3) scale(0.01800)"><use href="#gq" x="28068"/><use href="#gu" x="28614"/><use href="#ge" x="29182"/><use href="#gu" x="29729"/><use href="#ge" x="30297"/><use href="#go" x="31344"/><use href="#gv" x="31898"/><use href="#ge" x="32421"/><use href="#gr" x="32968"/><use href="#gt" x="33898"/><use href="#gh" x="34463"/><use href="#gr" x="34957"/><use href="#ge" x="35387"/><use href="#gs" x="35934"/><use href="#gh" x="36477"/><use href="#go" x="36971"/><use href="#gl" x="37525"/><use href="#gd" x="37788"/><use href="#gcolon" x="38357"/></g><g fill="#1e1e1e" transform="translate(0 70.3) scale(0.01800)"><use href="#gE" x="27887"/><use href="#gC" x="28561"/><use href="#gN" x="29205"/><use href="#gm" x="30349"/><use href="#ga" x="30982"/><use href="#gr" x="31649"/><use href="#gk" x="32079"/><use href="#gparenleft" x="33066"/><use href="#gI" x="33481"/><use href="#gP" x="34026"/><use href="#gh" x="35187"/><use href="#ge" x="35681"/><use href="#ga" x="36228"/><use href="#gd" x="36895"/><use href="#ge" x="37464"/><use href="#gr" x="38011"/><use href="#gparenright" x="38441"/></g><path d="M601 78 C598 89, 602 98, 598 128 M601 80 C601 92, 599 104, 600 127" stroke="#1e1e1e" stroke-width="1.6" fill="none" stroke-linecap="round" stroke-linejoin="round" stroke-dasharray="8 7"/><path d="M600 127 C599 123, 597 121, 594 113 M601 126 C599 122, 597 119, 594 114" stroke="#1e1e1e" stroke-width="1.6" fill="none" stroke-linecap="round" stroke-linejoin="round"/><path d="M599 126 C602 122, 603 121, 607 112 M599 127 C602 122, 603 118, 607 114" stroke="#1e1e1e" stroke-width="1.6" fill="none" stroke-linecap="round" stroke-linejoin="round"/><path d="M919 151 L1139 150 L1142 238 L921 241" stroke="none" stroke-width="0" fill="#ffffff" stroke-linecap="round" stroke-linejoin="round"/><path d="M921 149 C963 150, 1006 149, 1142 151 M920 150 C992 148, 1066 149, 1139 150 M1142 149 C1138 181, 1138 210, 1142 242 M1140 150 C1141 171, 1140 190, 1140 241 M1140 241 C1088 242, 1037 242, 921 239 M1140 240 C1068 240, 998 240, 920 240 M922 241 C918 221, 919 206, 919 150 M920 241 C920 214, 919 190, 919 150" stroke="#1e1e1e" stroke-width="1.6" fill="none" stroke-linecap="round" stroke-linejoin="round"/><g fill="#1e1e1e" transform="translate(0 202.7) scale(0.02200)"><use href="#gR" x="43655"/><use href="#ge" x="44333"/><use href="#gc" x="44880"/><use href="#ge" x="45382"/><use href="#gi" x="45929"/><use href="#gv" x="46148"/><use href="#ge" x="46671"/><use href="#gr" x="47218"/><use href="#gN" x="48148"/><use href="#gI" x="48792"/><use href="#gC" x="49337"/></g><path d="M284 208 C325 211, 365 211, 485 209 M284 209 C356 210, 426 210, 486 210" stroke="#1e1e1e" stroke-width="1.6" fill="none" stroke-linecap="round" stroke-linejoin="round"/><path d="M485 211 C482 211, 482 213, 474 217 M486 210 C481 213, 477 214, 473 216" stroke="#1e1e1e" stroke-width="1.6" fill="none" stroke-linecap="round" stroke-linejoin="round"/><path d="M484 210 C484 208, 480 208, 475 204 M487 210 C481 208, 476 206, 474 203" stroke="#1e1e1e" stroke-width="1.6" fill="none" stroke-linecap="round" stroke-linejoin="round"/><path d="M715 209 C756 209, 795 212, 915 208 M713 209 C757 209, 803 209, 917 211" stroke="#1e1e1e" stroke-width="1.6" fill="none" stroke-linecap="round" stroke-linejoin="round"/><path d="M916 211 C913 212, 912 214, 903 217 M916 210 C913 212, 910 212, 903 217" stroke="#1e1e1e" stroke-width="1.6" fill="none" stroke-linecap="round" stroke-linejoin="round"/><path d="M915 211 C914 209, 910 209, 904 203 M916 210 C913 208, 909 207, 903 204" stroke="#1e1e1e" stroke-width="1.6" fill="none" stroke-linecap="round" stroke-linejoin="round"/><g fill="#555" transform="translate(0 240.9) scale(0.01700)"><use href="#gR" x="19220"/><use href="#go" x="19898"/><use href="#gC" x="20452"/><use href="#gE" x="21096"/><use href="#gp" x="22270"/><use href="#ga" x="22763"/><use href="#gc" x="23430"/><use href="#gk" x="23932"/><use href="#ge" x="24419"/><use href="#gt" x="24966"/><use href="#gs" x="25531"/></g><g fill="#555" transform="translate(0 240.9) scale(0.01700)"><use href="#gm" x="44123"/><use href="#ga" x="44756"/><use href="#gr" x="45423"/><use href="#gk" x="45853"/><use href="#ge" x="46340"/><use href="#gd" x="46887"/><use href="#gp" x="47956"/><use href="#ga" x="48449"/><use href="#gc" x="49116"/><use href="#gk" x="49618"/><use href="#ge" x="50105"/><use href="#gt" x="50652"/><use href="#gs" x="51217"/></g><path d="M1032 244 C1028 263, 1030 280, 1028 342 M1030 245 C1029 271, 1030 298, 1030 340" stroke="#1e1e1e" stroke-width="1.6" fill="none" stroke-linecap="round" stroke-linejoin="round"/><path d="M1030 339 C858 341, 686 340, 170 340 M1030 340 C770 341, 509 341, 170 340" stroke="#1e1e1e" stroke-width="1.6" fill="none" stroke-linecap="round" stroke-linejoin="round"/><path d="M169 342 C168 319, 170 300, 171 242 M171 339 C170 308, 170 278, 169 244" stroke="#1e1e1e" stroke-width="1.6" fill="none" stroke-linecap="round" stroke-linejoin="round"/><path d="M168 245 C171 247, 173 248, 175 257 M169 245 C172 248, 174 252, 176 256" stroke="#1e1e1e" stroke-width="1.6" fill="none" stroke-linecap="round" stroke-linejoin="round"/><path d="M171 244 C170 247, 166 248, 163 256 M170 244 C167 248, 166 254, 164 256" stroke="#1e1e1e" stroke-width="1.6" fill="none" stroke-linecap="round" stroke-linejoin="round"/><g fill="#1e1e1e" transform="translate(0 371.6) scale(0.01900)"><use href="#gC" x="24526"/><use href="#gN" x="25170"/><use href="#gP" x="25814"/><use href="#gparenleft" x="26975"/><use href="#gc" x="27390"/><use href="#go" x="27892"/><use href="#gn" x="28446"/><use href="#gg" x="28913"/><use href="#ge" x="29414"/><use href="#gs" x="29961"/><use href="#gt" x="30504"/><use href="#gi" x="31069"/><use href="#go" x="31288"/><use href="#gn" x="31842"/><use href="#gn" x="32809"/><use href="#go" x="33276"/><use href="#gt" x="33830"/><use href="#gi" x="34395"/><use href="#gf" x="34614"/><use href="#gi" x="35100"/><use href="#gc" x="35319"/><use href="#ga" x="35821"/><use href="#gt" x="36488"/><use href="#gi" x="37053"/><use href="#go" x="37272"/><use href="#gn" x="37826"/><use href="#gparenright" x="38293"/></g><g fill="#555" transform="translate(0 400.9) scale(0.01700)"><use href="#gs" x="25202"/><use href="#ge" x="25745"/><use href="#gn" x="26292"/><use href="#gd" x="26759"/><use href="#ge" x="27328"/><use href="#gr" x="27875"/><use href="#gN" x="28805"/><use href="#gI" x="29449"/><use href="#gC" x="29994"/><use href="#gl" x="31138"/><use href="#go" x="31401"/><use href="#gw" x="31955"/><use href="#ge" x="32564"/><use href="#gr" x="33111"/><use href="#gs" x="33541"/><use href="#gi" x="34584"/><use href="#gt" x="34803"/><use href="#gs" x="35368"/><use href="#gr" x="36411"/><use href="#ga" x="36841"/><use href="#gt" x="37508"/><use href="#ge" x="38073"/><use href="#gparenleft" x="39120"/><use href="#ge" x="39535"/><use href="#gperiod" x="40082"/><use href="#gg" x="40356"/><use href="#gperiod" x="40857"/><use href="#gD" x="41631"/><use href="#gC" x="42411"/><use href="#gQ" x="43055"/><use href="#gC" x="43760"/><use href="#gN" x="44404"/><use href="#gparenright" x="45048"/></g><path d="M486 169 C445 168, 405 168, 284 171 M486 169 C408 171, 329 170, 284 171" stroke="#1e1e1e" stroke-width="1.6" fill="none" stroke-linecap="round" stroke-linejoin="round" stroke-dasharray="8 7"/><path d="M283 171 C287 168, 290 167, 298 164 M284 170 C287 169, 290 167, 297 164" stroke="#1e1e1e" stroke-width="1.6" fill="none" stroke-linecap="round" stroke-linejoin="round"/><path d="M285 170 C285 173, 288 173, 296 175 M284 170 C287 172, 290 173, 296 176" stroke="#1e1e1e" stroke-width="1.6" fill="none" stroke-linecap="round" stroke-linejoin="round"/><g fill="#1e1e1e" transform="translate(0 151.3) scale(0.01800)"><use href="#gP" x="18790"/><use href="#gF" x="19451"/><use href="#gC" x="20025"/><use href="#gp" x="21169"/><use href="#ga" x="21662"/><use href="#gu" x="22329"/><use href="#gs" x="22897"/><use href="#ge" x="23440"/></g><g fill="#555" transform="translate(0 125.3) scale(0.01500)"><use href="#gp" x="18199"/><use href="#ge" x="18692"/><use href="#gr" x="19239"/><use href="#gp" x="20169"/><use href="#gr" x="20662"/><use href="#gi" x="21092"/><use href="#go" x="21311"/><use href="#gr" x="21865"/><use href="#gi" x="22295"/><use href="#gt" x="22514"/><use href="#gy" x="23079"/><use href="#gcomma" x="23548"/><use href="#gb" x="24305"/><use href="#gu" x="24813"/><use href="#gf" x="25381"/><use href="#gf" x="25867"/><use href="#ge" x="26353"/><use href="#gr" x="26900"/><use href="#ga" x="27830"/><use href="#gl" x="28497"/><use href="#gm" x="28760"/><use href="#go" x="29393"/><use href="#gs" x="29947"/><use href="#gt" x="30490"/><use href="#gf" x="31555"/><use href="#gu" x="32041"/><use href="#gl" x="32609"/><use href="#gl" x="32872"/></g></svg>
